<svg width="16" height="22" viewBox="0 0 16 22" fill="none" xmlns="http://www.w3.org/2000/svg">
<path d="M14.993 2.50095H11.281V1.09895C11.281 0.723946 10.979 0.418945 10.604 0.418945H5.64002C5.26402 0.418945 4.96002 0.723946 4.96002 1.09895V2.50095H1.25002C0.876021 2.50095 0.572021 2.80795 0.572021 3.18095V5.26495C0.572021 5.63795 0.876021 5.94295 1.25002 5.94295H1.45502L2.07602 20.5499C2.09002 20.9129 2.38802 21.1999 2.75202 21.1999H13.49C13.853 21.1999 14.15 20.9129 14.166 20.5499L14.785 5.94295H14.992C15.368 5.94295 15.67 5.63795 15.67 5.26495V3.18095C15.671 2.80795 15.369 2.50095 14.993 2.50095ZM6.31802 1.77495H9.92502V2.50195H6.31802V1.77495ZM12.842 19.8449H3.40002L2.81302 5.94295H13.427L12.842 19.8449ZM14.315 4.58695C13.699 4.58695 2.29602 4.58695 1.92802 4.58695V3.85995H14.315V4.58695Z" fill="#52629F"/>
<path d="M5.39602 8.021C5.02202 8.021 4.71802 8.324 4.71802 8.701V17.092C4.71802 17.463 5.02202 17.768 5.39602 17.768C5.77002 17.768 6.07402 17.463 6.07402 17.092V8.701C6.07302 8.324 5.77002 8.021 5.39602 8.021Z" fill="#52629F"/>
<path d="M8.12001 8.021C7.74801 8.021 7.44202 8.324 7.44202 8.701V17.092C7.44202 17.463 7.74801 17.768 8.12001 17.768C8.49401 17.768 8.80001 17.463 8.80001 17.092V8.701C8.80001 8.324 8.49401 8.021 8.12001 8.021Z" fill="#52629F"/>
<path d="M10.8471 8.021C10.4741 8.021 10.1691 8.324 10.1691 8.701V17.092C10.1691 17.463 10.4741 17.768 10.8471 17.768C11.2211 17.768 11.5251 17.463 11.5251 17.092V8.701C11.5241 8.324 11.2211 8.021 10.8471 8.021Z" fill="#52629F"/>
</svg>
