<svg width="31" height="31" viewBox="0 0 31 31" fill="none" xmlns="http://www.w3.org/2000/svg">
<path opacity="0.4" d="M15.8291 30.787C24.1299 30.787 30.8591 24.0578 30.8591 15.757C30.8591 7.45612 24.1299 0.727051 15.8291 0.727051C7.52823 0.727051 0.799072 7.45612 0.799072 15.757C0.799072 24.0578 7.52823 30.787 15.8291 30.787Z" fill="#EAEAEA"/>
<path d="M20.0771 10.62H17.7821V9.75305C17.7821 9.52105 17.5951 9.33301 17.3641 9.33301H14.2951C14.0631 9.33301 13.8751 9.52105 13.8751 9.75305V10.62H11.5811C11.3501 10.62 11.1621 10.809 11.1621 11.04V12.329C11.1621 12.559 11.3501 12.7469 11.5811 12.7469H11.7081L12.0921 21.778C12.1011 22.003 12.2851 22.1801 12.5101 22.1801H19.1491C19.3741 22.1801 19.5571 22.002 19.5671 21.778L19.9501 12.7469H20.0781C20.3101 12.7469 20.4971 12.559 20.4971 12.329V11.04C20.4961 10.81 20.3101 10.62 20.0771 10.62ZM14.7141 10.171H16.9441V10.62H14.7141V10.171ZM18.7471 21.343H12.9101L12.5471 12.7469H19.1091L18.7471 21.343ZM19.6581 11.9091C19.2771 11.9091 12.2271 11.9091 12.0001 11.9091V11.46H19.6581V11.9091Z" fill="#A3A3A3"/>
<path d="M14.1441 14.032C13.9131 14.032 13.7251 14.22 13.7251 14.452V19.64C13.7251 19.87 13.9131 20.058 14.1441 20.058C14.3751 20.058 14.5631 19.87 14.5631 19.64V14.452C14.5621 14.22 14.3751 14.032 14.1441 14.032Z" fill="#A3A3A3"/>
<path d="M15.8282 14.032C15.5982 14.032 15.4092 14.22 15.4092 14.452V19.64C15.4092 19.87 15.5972 20.058 15.8282 20.058C16.0592 20.058 16.2482 19.87 16.2482 19.64V14.452C16.2482 14.22 16.0602 14.032 15.8282 14.032Z" fill="#A3A3A3"/>
<path d="M17.5142 14.032C17.2842 14.032 17.0952 14.22 17.0952 14.452V19.64C17.0952 19.87 17.2832 20.058 17.5142 20.058C17.7452 20.058 17.9332 19.87 17.9332 19.64V14.452C17.9332 14.22 17.7452 14.032 17.5142 14.032Z" fill="#A3A3A3"/>
</svg>
