<?xml version="1.0" encoding="utf-8"?>
<!-- Generator: Adobe Illustrator 16.0.0, SVG Export Plug-In . SVG Version: 6.00 Build 0)  -->
<!DOCTYPE svg PUBLIC "-//W3C//DTD SVG 1.1//EN" "http://www.w3.org/Graphics/SVG/1.1/DTD/svg11.dtd">
<svg version="1.1" xmlns="http://www.w3.org/2000/svg" xmlns:xlink="http://www.w3.org/1999/xlink" x="0px" y="0px"
	 width="14.024px" height="13.954px" viewBox="0 0 14.024 13.954" enable-background="new 0 0 14.024 13.954" xml:space="preserve">
<g id="Layer_1">
	<g>
		<g>
			<g>
				<path fill="#51619E" d="M12.944,8.757c-0.192,0-0.35,0.157-0.35,0.349v3.102c0,0.579-0.469,1.047-1.047,1.048H1.746
					c-0.578-0.001-1.046-0.469-1.048-1.048V3.104C0.7,2.527,1.168,2.058,1.746,2.058h3.102c0.192,0,0.35-0.157,0.35-0.35
					c0-0.194-0.157-0.35-0.35-0.35H1.746C0.782,1.36,0.002,2.142,0,3.104v9.103c0.002,0.965,0.782,1.745,1.746,1.747h9.802
					c0.963-0.002,1.744-0.782,1.746-1.747V9.105C13.294,8.914,13.138,8.757,12.944,8.757z"/>
				<path fill="#51619E" d="M13.155,0.459c-0.613-0.613-1.608-0.613-2.223,0L4.701,6.691c-0.043,0.042-0.073,0.096-0.09,0.154
					l-0.82,2.958c-0.033,0.122,0.001,0.251,0.091,0.34c0.089,0.09,0.219,0.123,0.34,0.09L7.18,9.414
					c0.058-0.017,0.112-0.046,0.154-0.088l6.231-6.232c0.612-0.615,0.612-1.61,0-2.223L13.155,0.459z M5.462,6.918l5.101-5.1
					l1.645,1.644L7.106,8.563L5.462,6.918z M5.133,7.578l1.315,1.314L4.63,9.396L5.133,7.578z M13.071,2.599l-0.37,0.371
					l-1.645-1.645l0.37-0.37c0.341-0.341,0.895-0.341,1.235,0l0.409,0.41C13.411,1.704,13.411,2.257,13.071,2.599z"/>
			</g>
		</g>
	</g>
</g>
<g id="Layer_2">
</g>
</svg>
