<svg width="117" height="98" viewBox="0 0 117 98" fill="none" xmlns="http://www.w3.org/2000/svg">
<path d="M9 98C13.9706 98 18 93.7467 18 88.5C18 83.2533 13.9706 79 9 79C4.02944 79 0 83.2533 0 88.5C0 93.7467 4.02944 98 9 98Z" fill="#019788"/>
<path d="M11.066 36.354H7.44901V84.549H11.066V36.354Z" fill="#019788"/>
<path d="M117.141 64.3548C117.801 65.8097 117.441 67 116.341 67H9.44901C8.34901 67 7.44901 65.5121 7.44901 63.6935V3.30652C7.44901 1.48793 8.34901 0 9.44901 0H116.341C117.441 0 117.801 1.19035 117.14 2.64522L104.33 30.8548C103.669 32.3097 103.669 34.6887 104.33 36.1436L117.141 64.3548Z" fill="#019788"/>
</svg>
