<svg width="124" height="103" viewBox="0 0 124 103" fill="none" xmlns="http://www.w3.org/2000/svg">
<path d="M16.5 103C25.6127 103 33 95.3888 33 86C33 76.6112 25.6127 69 16.5 69C7.3873 69 0 76.6112 0 86C0 95.3888 7.3873 103 16.5 103Z" fill="#FD9080"/>
<path d="M18.066 36.354H14.449V84.549H18.066V36.354Z" fill="#FD9080"/>
<path d="M124.141 38.926C124.801 39.806 124.441 40.526 123.341 40.526H16.449C15.349 40.526 14.449 39.626 14.449 38.526V2C14.449 0.9 15.349 0 16.449 0H123.341C124.441 0 124.801 0.72 124.14 1.6L111.33 18.663C110.669 19.543 110.669 20.982 111.33 21.862L124.141 38.926Z" fill="#FD9080"/>
</svg>
