<?xml version="1.0" encoding="utf-8"?>
<!-- Generator: Adobe Illustrator 16.0.0, SVG Export Plug-In . SVG Version: 6.00 Build 0)  -->
<!DOCTYPE svg PUBLIC "-//W3C//DTD SVG 1.1//EN" "http://www.w3.org/Graphics/SVG/1.1/DTD/svg11.dtd">
<svg version="1.1" xmlns="http://www.w3.org/2000/svg" xmlns:xlink="http://www.w3.org/1999/xlink" x="0px" y="0px"
	 width="21.414px" height="21.414px" viewBox="0 0 21.414 21.414" enable-background="new 0 0 21.414 21.414" xml:space="preserve">
<g id="Layer_1">
	<g>
		<g>
			<g>
				<path d="M15.164,7.217l-0.229-0.754c-0.29-0.857-1.221-1.315-2.078-1.024c-0.481,0.164-0.86,0.542-1.024,1.024l-0.229,0.754
					C11.41,7.853,11.37,8.526,11.485,9.18c0.105,0.551,0.454,1.024,0.951,1.286l-0.257,5.737c-0.034,0.32,0.069,0.64,0.285,0.878
					c0.466,0.508,1.254,0.544,1.762,0.079c0.027-0.025,0.054-0.05,0.079-0.079c0.212-0.231,0.315-0.542,0.285-0.854l-0.258-5.761
					c0.495-0.263,0.844-0.736,0.948-1.286C15.396,8.526,15.357,7.853,15.164,7.217z M14.579,9.056
					c-0.077,0.396-0.359,0.721-0.741,0.853c-0.144,0.054-0.237,0.195-0.23,0.351l0.271,6.024c0.013,0.119-0.026,0.236-0.107,0.323
					c-0.215,0.213-0.561,0.213-0.775,0c-0.086-0.095-0.123-0.222-0.104-0.347l0.269-6.001c0.007-0.155-0.088-0.297-0.23-0.351
					c-0.382-0.132-0.664-0.457-0.741-0.853c-0.096-0.544-0.062-1.102,0.097-1.63l0.23-0.755c0.178-0.479,0.71-0.724,1.189-0.546
					c0.253,0.093,0.453,0.293,0.547,0.546l0.229,0.755C14.641,7.955,14.674,8.512,14.579,9.056z"/>
			</g>
		</g>
		<g>
			<g>
				<path d="M9.636,5.353c-0.196,0-0.356,0.16-0.356,0.356v3.065L8.314,9.741C8.242,9.813,8.203,9.91,8.208,10.011l0.312,6.246
					c0.008,0.134-0.041,0.266-0.134,0.364c-0.196,0.198-0.514,0.198-0.712,0.003c-0.001-0.001-0.002-0.002-0.002-0.003
					c-0.095-0.098-0.143-0.229-0.136-0.364l0.314-6.246C7.857,9.91,7.819,9.813,7.748,9.741L6.78,8.774V5.709
					c0-0.196-0.159-0.356-0.356-0.356c-0.196,0-0.356,0.16-0.356,0.356v3.213c0,0.095,0.038,0.185,0.104,0.252l0.958,0.958
					l-0.304,6.089c-0.033,0.665,0.48,1.23,1.146,1.264c0.664,0.032,1.23-0.48,1.263-1.146c0.001-0.039,0.001-0.078,0-0.117
					L8.93,10.133l0.959-0.958c0.067-0.067,0.104-0.158,0.104-0.252V5.709C9.993,5.513,9.833,5.353,9.636,5.353z"/>
			</g>
		</g>
		<g>
			<g>
				<path d="M7.496,5.353c-0.199,0-0.358,0.16-0.358,0.356v2.857c0,0.197,0.159,0.356,0.358,0.356c0.197,0,0.355-0.16,0.355-0.356
					V5.709C7.852,5.513,7.693,5.353,7.496,5.353z"/>
			</g>
		</g>
		<g>
			<g>
				<path d="M8.565,5.353c-0.196,0-0.357,0.16-0.357,0.356v2.857c0,0.197,0.161,0.356,0.357,0.356c0.198,0,0.356-0.16,0.356-0.356
					V5.709C8.922,5.513,8.764,5.353,8.565,5.353z"/>
			</g>
		</g>
		<g>
			<g>
				<path d="M10.707,0C4.794,0,0,4.794,0,10.707c0,5.914,4.794,10.707,10.707,10.707s10.707-4.793,10.707-10.707
					C21.407,4.796,16.617,0.007,10.707,0z M10.707,20.7c-5.52,0-9.993-4.474-9.993-9.993c0-5.519,4.474-9.992,9.993-9.992
					S20.7,5.188,20.7,10.707C20.693,16.223,16.223,20.694,10.707,20.7z"/>
			</g>
		</g>
		<g>
			<g>
				<path d="M11.865,17.406c-0.019-0.195-0.193-0.339-0.39-0.319c-0.005,0-0.01,0-0.014,0.001h0.002
					c-0.504,0.059-1.01,0.059-1.514,0c-0.195-0.023-0.373,0.117-0.396,0.312c-0.023,0.196,0.117,0.373,0.312,0.396
					c0.558,0.065,1.12,0.065,1.678,0C11.741,17.777,11.885,17.602,11.865,17.406z"/>
			</g>
		</g>
		<g>
			<g>
				<path d="M16.168,6.108c-0.127-0.15-0.352-0.171-0.503-0.043l-0.002,0c-0.15,0.127-0.17,0.353-0.043,0.503
					c2.152,2.555,1.987,6.332-0.378,8.689c-0.14,0.139-0.14,0.366-0.001,0.505c0.139,0.14,0.365,0.141,0.505,0.001
					C18.375,13.144,18.559,8.947,16.168,6.108z"/>
			</g>
		</g>
		<g>
			<g>
				<g>
					<path d="M8.316,4.717c0,0,0,0-0.002,0l0,0H8.316z"/>
					<path d="M12.392,3.768c-1.396-0.333-2.858-0.244-4.202,0.258C8.006,4.096,7.912,4.302,7.98,4.486
						c0.053,0.14,0.186,0.231,0.334,0.231c0.043,0,0.086-0.008,0.125-0.022c1.209-0.453,2.527-0.533,3.783-0.232
						c0.192,0.046,0.385-0.071,0.431-0.263C12.7,4.007,12.582,3.815,12.392,3.768z"/>
				</g>
			</g>
		</g>
		<g>
			<g>
				<path d="M6.157,15.24c-1.204-1.201-1.879-2.832-1.875-4.533C4.278,9.35,4.71,8.025,5.512,6.927
					C5.63,6.771,5.598,6.547,5.44,6.428c-0.157-0.118-0.382-0.087-0.5,0.07C4.938,6.502,4.937,6.505,4.935,6.507
					C2.87,9.345,3.175,13.26,5.65,15.745c0.14,0.141,0.367,0.141,0.507,0C6.296,15.606,6.296,15.379,6.157,15.24z"/>
			</g>
		</g>
	</g>
</g>
<g id="Layer_2">
</g>
</svg>
