<?xml version="1.0" encoding="utf-8"?>
<!-- Generator: Adobe Illustrator 16.0.0, SVG Export Plug-In . SVG Version: 6.00 Build 0)  -->
<!DOCTYPE svg PUBLIC "-//W3C//DTD SVG 1.1//EN" "http://www.w3.org/Graphics/SVG/1.1/DTD/svg11.dtd">
<svg version="1.1" xmlns="http://www.w3.org/2000/svg" xmlns:xlink="http://www.w3.org/1999/xlink" x="0px" y="0px"
	 width="49.162px" height="49.163px" viewBox="0 0 49.162 49.163" enable-background="new 0 0 49.162 49.163" xml:space="preserve">
<g id="Layer_1">
	<g>
		<circle fill="#FFFFFF" cx="24.581" cy="24.581" r="24.581"/>
		<path fill="#FD9080" d="M24.581,36.293c-0.375,0-0.736-0.136-1.018-0.383c-1.063-0.929-2.089-1.803-2.993-2.574l-0.005-0.003
			c-2.653-2.262-4.943-4.213-6.537-6.136c-1.781-2.149-2.61-4.188-2.61-6.414c0-2.164,0.742-4.159,2.089-5.62
			c1.363-1.478,3.232-2.292,5.266-2.292c1.52,0,2.912,0.481,4.137,1.429c0.619,0.477,1.177,1.062,1.671,1.745
			c0.494-0.683,1.055-1.269,1.672-1.745c1.224-0.947,2.617-1.429,4.136-1.429c2.033,0,3.902,0.814,5.268,2.292
			c1.346,1.461,2.088,3.456,2.088,5.62c0,2.226-0.83,4.265-2.613,6.412c-1.592,1.925-3.883,3.876-6.533,6.136
			c-0.906,0.772-1.933,1.648-3,2.58C25.317,36.157,24.956,36.293,24.581,36.293 M18.772,14.414c-1.598,0-3.065,0.637-4.133,1.795
			c-1.083,1.175-1.681,2.799-1.681,4.574c0,1.873,0.697,3.548,2.257,5.43c1.51,1.82,3.752,3.731,6.35,5.946l0.005,0.004
			c0.907,0.772,1.936,1.65,3.008,2.587c1.078-0.938,2.109-1.816,3.017-2.591c2.598-2.215,4.842-4.126,6.35-5.946
			c1.561-1.882,2.258-3.557,2.258-5.43c0-1.775-0.6-3.399-1.682-4.574c-1.068-1.158-2.535-1.795-4.133-1.795
			c-1.17,0-2.244,0.371-3.193,1.104c-0.845,0.655-1.433,1.48-1.779,2.059c-0.176,0.299-0.488,0.476-0.836,0.476
			c-0.346,0-0.66-0.177-0.836-0.476c-0.345-0.578-0.935-1.403-1.78-2.059C21.017,14.785,19.942,14.414,18.772,14.414"/>
	</g>
</g>
<g id="Layer_2">
</g>
</svg>
