<?xml version="1.0" encoding="utf-8"?>
<!-- Generator: Adobe Illustrator 16.0.0, SVG Export Plug-In . SVG Version: 6.00 Build 0)  -->
<!DOCTYPE svg PUBLIC "-//W3C//DTD SVG 1.1//EN" "http://www.w3.org/Graphics/SVG/1.1/DTD/svg11.dtd">
<svg version="1.1" xmlns="http://www.w3.org/2000/svg" xmlns:xlink="http://www.w3.org/1999/xlink" x="0px" y="0px"
	 width="13.643px" height="14.552px" viewBox="0 0 13.643 14.552" enable-background="new 0 0 13.643 14.552" xml:space="preserve">
<g id="Layer_1">
	<g>
		<g>
			<g>
				<path fill="#51619E" d="M10.418,6.632c-0.073-0.162-0.234-0.266-0.413-0.266H8.186V0.455C8.186,0.204,7.981,0,7.73,0H5.912
					C5.661,0,5.456,0.204,5.456,0.455v5.912H3.638c-0.179,0-0.34,0.104-0.413,0.266C3.15,6.796,3.179,6.986,3.296,7.121l3.184,3.637
					c0.086,0.1,0.211,0.156,0.343,0.156c0.13,0,0.255-0.058,0.341-0.156l3.184-3.637C10.465,6.987,10.492,6.796,10.418,6.632z"/>
			</g>
		</g>
		<g>
			<g>
				<path fill="#51619E" d="M11.824,10.004v2.729H1.819v-2.729H0v3.638c0,0.503,0.407,0.91,0.91,0.91h11.823
					c0.503,0,0.909-0.406,0.909-0.91v-3.638H11.824z"/>
			</g>
		</g>
	</g>
</g>
<g id="Layer_2">
</g>
</svg>
