<?xml version="1.0" encoding="utf-8"?>
<!-- Generator: Adobe Illustrator 16.0.0, SVG Export Plug-In . SVG Version: 6.00 Build 0)  -->
<!DOCTYPE svg PUBLIC "-//W3C//DTD SVG 1.1//EN" "http://www.w3.org/Graphics/SVG/1.1/DTD/svg11.dtd">
<svg version="1.1" xmlns="http://www.w3.org/2000/svg" xmlns:xlink="http://www.w3.org/1999/xlink" x="0px" y="0px"
	 width="14.111px" height="18.024px" viewBox="0 0 14.111 18.024" enable-background="new 0 0 14.111 18.024" xml:space="preserve">
<g id="Layer_1">
	<g>
		<g>
			<g>
				<g>
					<path fill="#51619E" d="M3.905,8.711v0.602c0,0.33-0.27,0.6-0.601,0.6H2.403c-0.332,0-0.602-0.27-0.602-0.6V4.807
						c0-0.332,0.27-0.602,0.602-0.602h0.901c0.247,0,0.469,0.152,0.558,0.379l0.047,0.271l0.593-0.1L4.45,4.455
						C4.448,4.438,4.444,4.422,4.438,4.406c-0.17-0.479-0.624-0.801-1.133-0.801H3.304H2.402c-0.661,0-1.2,0.539-1.2,1.201v4.506
						c0,0.664,0.539,1.201,1.2,1.201h0.901c0.663,0,1.202-0.537,1.202-1.201V8.711H3.905z"/>
				</g>
			</g>
			<g>
				<g>
					<path fill="#51619E" d="M2.854,0.9c-0.911,0-1.652,0.742-1.652,1.652c0,0.912,0.741,1.652,1.652,1.652
						c0.91,0,1.651-0.74,1.651-1.652C4.506,1.643,3.765,0.9,2.854,0.9z M2.854,3.605c-0.58,0-1.053-0.473-1.053-1.053
						s0.473-1.051,1.053-1.051c0.579,0,1.051,0.471,1.051,1.051S3.434,3.605,2.854,3.605z"/>
				</g>
			</g>
			<g>
				<g>
					<path fill="#51619E" d="M1.502,6.309H0.841c-0.463,0-0.84,0.377-0.84,0.84v1.322c0,0.465,0.377,0.842,0.84,0.842h0.661
						c0.167,0,0.3-0.135,0.3-0.301V6.607C1.802,6.443,1.669,6.309,1.502,6.309z M1.202,8.711H0.841c-0.132,0-0.24-0.107-0.24-0.24
						V7.148c0-0.131,0.108-0.238,0.24-0.238h0.361V8.711z"/>
				</g>
			</g>
			<g>
				<g>
					<path fill="#51619E" d="M6.609,3.605H5.407v0.6h1.202c0.497,0,0.9,0.404,0.9,0.902v5.105H4.506V8.109H3.905v2.404
						c0,0.166,0.135,0.301,0.301,0.301H7.81c0.167,0,0.301-0.135,0.301-0.301V5.107C8.11,4.277,7.437,3.605,6.609,3.605z"/>
				</g>
			</g>
			<g>
				<g>
					<path fill="#51619E" d="M7.761,1.123L7.183,1.281C7.201,1.352,7.21,1.426,7.21,1.502v1.201c0,0.496-0.404,0.902-0.9,0.902
						c-0.498,0-0.902-0.406-0.902-0.902V1.498c0-0.072,0.01-0.146,0.029-0.217l-0.58-0.16C4.822,1.246,4.806,1.375,4.806,1.502
						v1.201c0,0.828,0.675,1.502,1.504,1.502c0.827,0,1.5-0.674,1.5-1.502V1.504C7.812,1.377,7.796,1.248,7.761,1.123z"/>
				</g>
			</g>
			<g>
				<g>
					<path fill="#51619E" d="M8.11,0H6.008C5.345,0,4.806,0.539,4.806,1.201v1.201c0,0.123,0.074,0.23,0.187,0.279
						c0.037,0.014,0.075,0.021,0.114,0.021c0.079,0,0.155-0.029,0.213-0.088l1.113-1.113H7.21c0.662,0,1.201-0.539,1.201-1.201
						C8.411,0.135,8.276,0,8.11,0z M7.21,0.9h-0.9c-0.081,0-0.157,0.031-0.214,0.088L5.407,1.678V1.201
						c0-0.33,0.27-0.602,0.601-0.602h1.722C7.626,0.781,7.432,0.9,7.21,0.9z"/>
				</g>
			</g>
			<g>
				<g>
					<path fill="#51619E" d="M10.782,15.787l-2.703-5.408L7.54,10.646l2.57,5.141l-0.678,0.338l-2.396-4.25
						c-0.148-0.281-0.439-0.457-0.761-0.461c-0.479,0-0.868,0.391-0.868,0.869v1.33c-0.002,0.365-0.219,0.689-0.555,0.828
						l-2.605,1.094l-0.336-0.668l2.416-1.074c0.109-0.049,0.179-0.156,0.179-0.275v-3.004H3.905v2.809L1.38,14.443
						c-0.074,0.035-0.133,0.096-0.16,0.174c-0.028,0.078-0.023,0.162,0.014,0.236l0.602,1.201c0.07,0.143,0.238,0.203,0.385,0.143
						l2.864-1.201c0.559-0.232,0.921-0.773,0.924-1.381v-1.332c0-0.148,0.12-0.268,0.265-0.268c0.098,0,0.188,0.053,0.236,0.148
						l2.541,4.504c0.057,0.098,0.158,0.154,0.264,0.154c0.045,0,0.09-0.012,0.133-0.033l1.202-0.6
						C10.797,16.115,10.856,15.934,10.782,15.787z"/>
				</g>
			</g>
			<g>
				<g>
					<path fill="#51619E" d="M2.837,16.721l-1.066-2.137c-0.035-0.07-0.098-0.125-0.174-0.15s-0.158-0.02-0.229,0.018l-1.202,0.6
						c-0.07,0.035-0.125,0.098-0.15,0.174c-0.024,0.076-0.018,0.158,0.018,0.23l1.035,2.068c0.154,0.309,0.463,0.5,0.807,0.5H2.03
						c0.345,0,0.654-0.191,0.807-0.5C2.962,17.271,2.962,16.973,2.837,16.721z M2.3,17.256c-0.051,0.104-0.154,0.168-0.27,0.168
						H1.874c-0.113,0-0.217-0.064-0.268-0.168l-0.001-0.002l-0.901-1.799l0.664-0.334L2.3,16.99
						C2.341,17.072,2.341,17.172,2.3,17.256z"/>
				</g>
			</g>
			<g>
				<g>
					<path fill="#51619E" d="M12.284,15.785c-0.24-0.477-0.825-0.674-1.305-0.434l-1.802,0.902
						c-0.148,0.072-0.208,0.254-0.134,0.402l0.601,1.201c0.053,0.105,0.159,0.166,0.269,0.166c0.045,0,0.092-0.01,0.135-0.031
						l1.801-0.902h0.002C12.327,16.85,12.522,16.266,12.284,15.785z M11.581,16.553l-1.533,0.768l-0.332-0.664l1.533-0.768
						c0.182-0.092,0.406-0.018,0.498,0.164C11.837,16.236,11.763,16.459,11.581,16.553z"/>
				</g>
			</g>
			<g>
				<g>
					<path fill="#51619E" d="M2.854,2.104c-0.25,0-0.451,0.201-0.451,0.449c0,0.25,0.201,0.453,0.451,0.453
						c0.248,0,0.449-0.203,0.449-0.453C3.304,2.305,3.103,2.104,2.854,2.104z M2.854,2.703c-0.084,0-0.15-0.066-0.15-0.15
						c0-0.082,0.066-0.15,0.15-0.15c0.082,0,0.15,0.068,0.15,0.15C3.005,2.637,2.937,2.703,2.854,2.703z"/>
				</g>
			</g>
			<g>
				<g>
					<path fill="#51619E" d="M12.175,5.604c-0.03-0.039-0.062-0.076-0.1-0.113c-0.197-0.195-0.457-0.303-0.734-0.303
						c-0.001,0-0.003,0-0.004,0c-0.278,0.002-0.539,0.111-0.734,0.307l-1.27,1.271L8.042,5.213L7.579,5.598L9.081,7.4
						C9.136,7.467,9.215,7.506,9.299,7.51C9.383,7.512,9.466,7.48,9.525,7.422l1.503-1.502c0.082-0.086,0.193-0.131,0.312-0.131
						h0.001c0.117,0,0.229,0.045,0.312,0.129c0.014,0.014,0.029,0.031,0.041,0.047c0.132,0.176,0.115,0.426-0.04,0.58l-1.485,1.488
						C9.931,8.273,9.6,8.41,9.261,8.41c-0.002,0,0,0-0.004,0c-0.43,0-0.826-0.213-1.066-0.574L8.059,7.641L7.562,7.979l0.131,0.193
						c0.348,0.525,0.934,0.84,1.564,0.84c0.002,0,0.002,0,0.004,0c0.498,0,0.986-0.203,1.334-0.557l1.484-1.484
						C12.444,6.605,12.485,6.02,12.175,5.604z"/>
				</g>
			</g>
			<g>
				<g>
					<path fill="#51619E" d="M7.163,8.225C7.107,7.949,6.948,7.713,6.725,7.566L5.048,6.361l1.355-0.828
						c0.006-0.002,0.008-0.004,0.012-0.006C6.433,5.516,6.452,5.502,6.47,5.488c0.221-0.17,0.363-0.416,0.399-0.693
						S6.83,4.242,6.663,4.025C6.329,3.578,5.704,3.471,5.248,3.777L3.036,5.156C2.639,5.422,2.402,5.865,2.403,6.34
						C2.402,6.818,2.639,7.262,3.029,7.521l2.523,1.785c0.179,0.121,0.382,0.178,0.581,0.178c0.322,0,0.637-0.146,0.841-0.422
						C6.988,9.045,7,9.029,7.011,9.012C7.165,8.777,7.22,8.498,7.163,8.225z M6.494,8.703C6.353,8.895,6.085,8.939,5.894,8.812
						L3.369,7.025C3.14,6.873,3.003,6.617,3.005,6.34C3.003,6.064,3.14,5.811,3.361,5.662l2.213-1.381
						C5.649,4.23,5.737,4.205,5.821,4.205c0.139,0,0.273,0.064,0.363,0.184C6.257,4.482,6.288,4.6,6.273,4.719
						C6.257,4.834,6.197,4.939,6.104,5.012L4.351,6.086C4.264,6.137,4.21,6.23,4.206,6.33s0.043,0.197,0.125,0.254l2.053,1.477
						c0.1,0.066,0.168,0.168,0.191,0.285C6.599,8.461,6.575,8.58,6.494,8.703z"/>
				</g>
			</g>
			<g>
				<g>
					
						<rect x="4.912" y="5.773" transform="matrix(-0.484 0.8751 -0.8751 -0.484 14.0233 3.8749)" fill="#51619E" width="1.915" height="0.599"/>
				</g>
			</g>
			<g>
				<g>
					
						<rect x="3.835" y="8.711" transform="matrix(-0.4466 0.8947 -0.8947 -0.4466 14.5813 9.0052)" fill="#51619E" width="1.343" height="0.602"/>
				</g>
			</g>
			<g>
				<g>
					<rect x="1.502" y="8.711" fill="#51619E" width="2.704" height="0.602"/>
				</g>
			</g>
			<g>
				<g>
					
						<rect x="12.017" y="4.634" transform="matrix(-0.9737 0.228 -0.228 -0.9737 26.8766 19.4271)" fill="#51619E" width="0.6" height="13.263"/>
				</g>
			</g>
			<g>
				<g>
					<rect x="2.704" y="3.605" fill="#51619E" width="3.304" height="0.6"/>
				</g>
			</g>
		</g>
	</g>
</g>
<g id="Layer_2">
</g>
</svg>
