<?xml version="1.0" encoding="utf-8"?>
<!-- Generator: Adobe Illustrator 16.0.0, SVG Export Plug-In . SVG Version: 6.00 Build 0)  -->
<!DOCTYPE svg PUBLIC "-//W3C//DTD SVG 1.1//EN" "http://www.w3.org/Graphics/SVG/1.1/DTD/svg11.dtd">
<svg version="1.1" xmlns="http://www.w3.org/2000/svg" xmlns:xlink="http://www.w3.org/1999/xlink" x="0px" y="0px" width="11.84px"
	 height="16.343px" viewBox="0 0 11.84 16.343" enable-background="new 0 0 11.84 16.343" xml:space="preserve">
<g id="Layer_1">
	<g>
		<g>
			<g>
				<path fill="#51619E" d="M5.919,0C2.655,0,0,2.654,0,5.918c0,4.05,5.298,9.996,5.523,10.248c0.212,0.236,0.581,0.236,0.793,0
					c0.226-0.252,5.523-6.198,5.523-10.248C11.84,2.654,9.185,0,5.919,0z M5.919,14.992c-1.781-2.115-4.853-6.294-4.853-9.074
					c0-2.676,2.178-4.854,4.853-4.854c2.677,0,4.854,2.177,4.854,4.854C10.773,8.698,7.702,12.875,5.919,14.992z"/>
			</g>
		</g>
		<g>
			<g>
				<path fill="#51619E" d="M5.919,2.941c-1.641,0-2.977,1.334-2.977,2.978c0,1.642,1.336,2.979,2.977,2.979
					c1.643,0,2.979-1.336,2.979-2.979C8.897,4.275,7.562,2.941,5.919,2.941z M5.919,7.831c-1.054,0-1.911-0.858-1.911-1.912
					c0-1.055,0.857-1.913,1.911-1.913c1.056,0,1.913,0.858,1.913,1.913C7.832,6.973,6.975,7.831,5.919,7.831z"/>
			</g>
		</g>
	</g>
</g>
<g id="Layer_2">
</g>
</svg>
