<?xml version="1.0" encoding="utf-8"?>
<!-- Generator: Adobe Illustrator 16.0.0, SVG Export Plug-In . SVG Version: 6.00 Build 0)  -->
<!DOCTYPE svg PUBLIC "-//W3C//DTD SVG 1.1//EN" "http://www.w3.org/Graphics/SVG/1.1/DTD/svg11.dtd">
<svg version="1.1" xmlns="http://www.w3.org/2000/svg" xmlns:xlink="http://www.w3.org/1999/xlink" x="0px" y="0px"
	 width="18.167px" height="18.534px" viewBox="0 0 18.167 18.534" enable-background="new 0 0 18.167 18.534" xml:space="preserve">
<g id="Layer_1">
	<g id="surface1_24_">
		<path fill="#51619E" stroke="#51619E" stroke-width="0.25" stroke-miterlimit="10" d="M0.46,5.175
			C0.453,5.212,0.449,5.249,0.449,5.284v0.753c0,0.31,0.193,0.587,0.483,0.695V7.84C0.935,8.21,1.226,8.514,1.596,8.532v6.394
			c-0.37,0.018-0.661,0.322-0.663,0.692v1.104c-0.291,0.113-0.483,0.39-0.483,0.704v0.734c0,0.138,0.111,0.25,0.248,0.25h16.761
			c0.137,0,0.249-0.112,0.249-0.25v-0.734c-0.002-0.313-0.194-0.591-0.484-0.704v-1.11c-0.002-0.371-0.293-0.674-0.664-0.693V8.532
			c0.371-0.018,0.662-0.321,0.664-0.692V6.732c0.29-0.108,0.481-0.386,0.484-0.695V5.29c-0.003-0.036-0.005-0.073-0.013-0.109
			c0.125,0.056,0.271-0.001,0.327-0.126c0.055-0.124-0.002-0.271-0.127-0.326L9.192,0.153c-0.073-0.038-0.16-0.038-0.233,0
			l-8.702,4.57C0.135,4.787,0.09,4.938,0.153,5.06C0.212,5.17,0.344,5.221,0.46,5.175z M1.43,7.164V6.781h2.866v0.38L1.43,7.164z
			 M7.812,8.534v6.392c-0.369,0.018-0.661,0.322-0.662,0.692v1.058h-2.36v-1.058c-0.001-0.37-0.292-0.675-0.662-0.692V8.532
			C4.497,8.514,4.788,8.21,4.789,7.84V6.781h2.356v1.058c0,0.37,0.293,0.676,0.663,0.693L7.812,8.534z M7.646,7.164V6.781h2.866
			v0.38L7.646,7.164z M14.027,8.534v6.392c-0.369,0.018-0.66,0.322-0.662,0.692v1.058h-2.359v-1.058
			c-0.001-0.37-0.293-0.675-0.662-0.692V8.532c0.369-0.018,0.661-0.321,0.662-0.692V6.781h2.356v1.058
			c0.001,0.37,0.292,0.676,0.663,0.693L14.027,8.534z M13.861,7.164V6.781h2.867v0.38L13.861,7.164z M16.729,16.296v0.379h-2.869
			v-0.379H16.729z M10.513,16.296v0.379h-2.87v-0.379H10.513z M8.057,8.041H7.841c-0.11,0-0.198-0.089-0.198-0.2V7.661h2.866V7.84
			c0,0.111-0.088,0.2-0.198,0.2H8.057z M9.848,8.538v6.385H8.307V8.538H9.848z M8.057,15.42h2.254c0.11,0,0.198,0.089,0.198,0.198
			v0.181H7.643v-0.181c0-0.109,0.088-0.198,0.198-0.198H8.057z M4.292,16.296v0.379H1.426v-0.379H4.292z M1.426,7.846V7.661h2.866
			V7.84c0,0.111-0.088,0.2-0.198,0.2H1.621C1.512,8.038,1.425,7.948,1.426,7.84V7.846z M3.63,8.542v6.38H2.089V8.538L3.63,8.542z
			 M1.426,15.623c0-0.109,0.09-0.199,0.2-0.199h2.468c0.11,0,0.198,0.09,0.198,0.199v0.181H1.426V15.623z M17.208,17.434v0.487
			H0.943v-0.487c0-0.142,0.115-0.257,0.257-0.257h15.753c0.139,0,0.253,0.111,0.255,0.252V17.434z M16.725,15.623v0.181h-2.865
			v-0.181c0-0.109,0.09-0.199,0.198-0.199h2.474c0.107,0.003,0.191,0.089,0.193,0.194V15.623z M14.521,14.927v-6.39h1.543v6.385
			L14.521,14.927z M16.725,7.846c0,0.109-0.089,0.199-0.199,0.199H14.06c-0.109,0-0.199-0.09-0.199-0.199V7.661h2.866L16.725,7.846z
			 M9.076,0.65l7.401,3.892H1.674L9.076,0.65z M0.943,5.29c0-0.137,0.111-0.248,0.248-0.248h15.77c0.138,0,0.247,0.11,0.247,0.248
			v0.753c0,0.137-0.109,0.248-0.247,0.248H1.191c-0.137,0-0.248-0.111-0.248-0.248V5.29z"/>
	</g>
</g>
<g id="Layer_2">
</g>
</svg>
