<?xml version="1.0" encoding="utf-8"?>
<!-- Generator: Adobe Illustrator 16.0.0, SVG Export Plug-In . SVG Version: 6.00 Build 0)  -->
<!DOCTYPE svg PUBLIC "-//W3C//DTD SVG 1.1//EN" "http://www.w3.org/Graphics/SVG/1.1/DTD/svg11.dtd">
<svg version="1.1" xmlns="http://www.w3.org/2000/svg" xmlns:xlink="http://www.w3.org/1999/xlink" x="0px" y="0px"
	 width="16.192px" height="14.654px" viewBox="0 0 16.192 14.654" enable-background="new 0 0 16.192 14.654" xml:space="preserve">
<g id="Layer_1">
	<g>
		<g>
			<path fill="#282826" d="M10.483,14.653H8.841c-0.105,0-0.204-0.053-0.264-0.141L4.773,8.897H2.617
				C1.85,8.886-0.016,8.165,0,7.124c0.008-0.465,0.377-0.881,1.07-1.203c0.501-0.234,1.127-0.383,1.551-0.379h2.156l3.805-5.408
				c0.06-0.084,0.156-0.135,0.26-0.135h1.642c0.106,0,0.206,0.053,0.265,0.141s0.07,0.199,0.031,0.297L8.624,5.745l4.821,0.5
				l1.242-1.123c0.059-0.055,0.135-0.084,0.215-0.084h0.972c0.109,0,0.211,0.057,0.269,0.148c0.059,0.094,0.066,0.209,0.02,0.309
				l-0.896,1.877l0.863,1.908c0.045,0.098,0.035,0.213-0.023,0.305c-0.059,0.09-0.159,0.145-0.268,0.145h-0.936
				c-0.082,0-0.16-0.031-0.221-0.088l-1.246-1.184L8.564,8.8l2.215,5.416c0.039,0.098,0.028,0.209-0.031,0.297
				C10.689,14.601,10.589,14.653,10.483,14.653z M9.01,14.017h0.999L7.808,8.632C7.769,8.538,7.779,8.431,7.832,8.343
				c0.055-0.086,0.146-0.141,0.249-0.148l5.45-0.381c0.088-0.006,0.176,0.025,0.24,0.086l1.257,1.193h0.317L14.64,7.534
				c-0.053-0.092-0.061-0.203-0.015-0.299l0.743-1.561h-0.345l-1.258,1.139c-0.067,0.061-0.157,0.088-0.247,0.08L8.136,6.335
				c-0.1-0.012-0.188-0.068-0.24-0.154C7.845,6.097,7.837,5.991,7.875,5.897l2.137-5.262H9.007L5.203,6.044
				C5.142,6.128,5.045,6.179,4.941,6.179H2.617c-0.275,0-0.814,0.104-1.279,0.318C0.908,6.698,0.64,6.942,0.636,7.136
				C0.63,7.587,1.914,8.249,2.621,8.261h2.32c0.105,0,0.205,0.053,0.264,0.141L9.01,14.017z"/>
		</g>
		<g>
			<path fill="#282826" d="M2.252,7.688c-0.026,0-0.053-0.006-0.078-0.02C1.925,7.552,1.795,7.397,1.79,7.214
				C1.78,6.917,2.109,6.718,2.174,6.681C2.231,6.649,2.3,6.649,2.357,6.683c0.055,0.033,0.09,0.094,0.088,0.158l-0.01,0.668
				C2.433,7.571,2.402,7.628,2.349,7.661C2.32,7.679,2.287,7.688,2.252,7.688z"/>
		</g>
	</g>
</g>
<g id="Layer_2">
</g>
</svg>
