<?xml version="1.0" encoding="utf-8"?>
<!-- Generator: Adobe Illustrator 16.0.0, SVG Export Plug-In . SVG Version: 6.00 Build 0)  -->
<!DOCTYPE svg PUBLIC "-//W3C//DTD SVG 1.1//EN" "http://www.w3.org/Graphics/SVG/1.1/DTD/svg11.dtd">
<svg version="1.1" xmlns="http://www.w3.org/2000/svg" xmlns:xlink="http://www.w3.org/1999/xlink" x="0px" y="0px"
	 width="25.662px" height="25.622px" viewBox="0 0 25.662 25.622" enable-background="new 0 0 25.662 25.622" xml:space="preserve">
<g id="Layer_1">
	<path fill="#FFFFFF" d="M8.459,15.084L7.597,20.37c-0.032,0.194,0.05,0.387,0.209,0.5s0.37,0.125,0.541,0.03l4.484-2.479
		l4.484,2.479c0.077,0.042,0.162,0.064,0.246,0.064c0.104,0,0.206-0.031,0.295-0.094c0.159-0.113,0.241-0.306,0.21-0.5l-0.863-5.285
		l3.647-3.738c0.134-0.137,0.181-0.336,0.12-0.518c-0.061-0.181-0.219-0.313-0.407-0.344l-5.021-0.766l-2.251-4.793
		c-0.168-0.357-0.755-0.357-0.923,0l-2.25,4.793l-5.021,0.766c-0.188,0.031-0.346,0.163-0.406,0.344
		c-0.061,0.182-0.016,0.381,0.117,0.518L8.459,15.084z M10.543,10.688c0.169-0.027,0.312-0.135,0.385-0.289l1.903-4.057l1.903,4.057
		c0.072,0.154,0.218,0.262,0.385,0.287l4.309,0.658l-3.134,3.211c-0.113,0.117-0.166,0.279-0.139,0.439l0.735,4.502l-3.812-2.106
		c-0.076-0.042-0.162-0.064-0.247-0.064c-0.086,0-0.172,0.021-0.247,0.064l-3.812,2.106l0.734-4.502
		c0.026-0.16-0.024-0.322-0.139-0.439l-3.134-3.211L10.543,10.688z"/>
</g>
<g id="Layer_2">
</g>
</svg>
