<svg width="17" height="18" viewBox="0 0 17 18" fill="none" xmlns="http://www.w3.org/2000/svg">
<path d="M4.25894 11.147L3.39694 16.4321C3.36494 16.6251 3.44694 16.8191 3.60594 16.9321C3.76494 17.0451 3.97594 17.0571 4.14694 16.9611L8.63093 14.4821L13.1149 16.9611C13.1919 17.0041 13.2769 17.0251 13.3609 17.0251C13.4649 17.0251 13.5669 16.9941 13.6559 16.9311C13.8149 16.8181 13.8969 16.6241 13.8659 16.4311L13.0029 11.146L16.6499 7.40801C16.7839 7.27101 16.8309 7.07206 16.7699 6.89006C16.7089 6.70806 16.5509 6.57807 16.3629 6.54607L11.3419 5.78008L9.09094 0.98711C8.92294 0.63011 8.33593 0.63011 8.16793 0.98711L5.91793 5.78008L0.896938 6.54607C0.708938 6.57707 0.550932 6.70806 0.490932 6.89006C0.430932 7.07206 0.474936 7.27101 0.607936 7.40801L4.25894 11.147ZM6.34294 6.75103C6.51194 6.72403 6.65493 6.61609 6.72793 6.46209L8.63093 2.40508L10.5339 6.46209C10.6059 6.61609 10.7519 6.72407 10.9189 6.74907L15.2279 7.40703L12.0939 10.6181C11.9809 10.7351 11.9279 10.8971 11.9549 11.0571L12.6899 15.559L8.87794 13.454C8.80194 13.411 8.71593 13.3901 8.63093 13.3901C8.54493 13.3901 8.45894 13.411 8.38394 13.454L4.57194 15.559L5.30593 11.0571C5.33193 10.8971 5.28194 10.7351 5.16694 10.6181L2.03294 7.40703L6.34294 6.75103Z" fill="white"/>
</svg>
