<svg width="37" height="37" viewBox="0 0 37 37" fill="none" xmlns="http://www.w3.org/2000/svg">
<path d="M18.025 36.05C27.9799 36.05 36.05 27.9799 36.05 18.025C36.05 8.07007 27.9799 0 18.025 0C8.07007 0 0 8.07007 0 18.025C0 27.9799 8.07007 36.05 18.025 36.05Z" fill="white"/>
<path fill-rule="evenodd" clip-rule="evenodd" d="M6.23864 15.7895L11.4239 6.43073C11.7421 5.85643 12.2579 5.85643 12.5761 6.43073L17.7614 15.7895C18.0795 16.3638 18.0795 17.2949 17.7614 17.8692C17.4432 18.4435 16.9273 18.4435 16.6091 17.8692L12.8148 11.0209V31H11.1852V11.0209L7.39091 17.8692C7.07272 18.4435 6.55683 18.4435 6.23864 17.8692C5.92045 17.2949 5.92045 16.3638 6.23864 15.7895Z" fill="#51619E"/>
<path fill-rule="evenodd" clip-rule="evenodd" d="M29.7614 21.2105L24.5761 30.5693C24.2579 31.1436 23.7421 31.1436 23.4239 30.5693L18.2386 21.2105C17.9205 20.6362 17.9205 19.7051 18.2386 19.1308C18.5568 18.5565 19.0727 18.5565 19.3909 19.1308L23.1852 25.9791L23.1852 6L24.8148 6L24.8148 25.9791L28.6091 19.1308C28.9273 18.5565 29.4432 18.5565 29.7614 19.1308C30.0795 19.7051 30.0795 20.6362 29.7614 21.2105Z" fill="#51619E"/>
</svg>
