<?xml version="1.0" encoding="utf-8"?>
<!-- Generator: Adobe Illustrator 16.0.0, SVG Export Plug-In . SVG Version: 6.00 Build 0)  -->
<!DOCTYPE svg PUBLIC "-//W3C//DTD SVG 1.1//EN" "http://www.w3.org/Graphics/SVG/1.1/DTD/svg11.dtd">
<svg version="1.1" xmlns="http://www.w3.org/2000/svg" xmlns:xlink="http://www.w3.org/1999/xlink" x="0px" y="0px" width="36px"
	 height="35.998px" viewBox="0 0 36 35.998" enable-background="new 0 0 36 35.998" xml:space="preserve">
<g id="Layer_1">
	<g>
		<circle fill="#FFFFFF" cx="18" cy="17.999" r="18"/>
		<g>
			<g>
				<g>
					<g>
						<path fill="#A3A3A3" d="M23.088,11.847h-2.749v-1.039c0-0.278-0.223-0.502-0.501-0.502h-3.676
							c-0.278,0-0.503,0.224-0.503,0.502v1.039h-2.747c-0.278,0-0.503,0.227-0.503,0.502v1.544c0,0.275,0.225,0.5,0.503,0.5h0.152
							l0.459,10.815c0.01,0.27,0.23,0.481,0.5,0.481h7.951c0.269,0,0.489-0.212,0.5-0.481l0.458-10.815h0.155
							c0.278,0,0.501-0.225,0.501-0.5V12.35C23.589,12.074,23.366,11.847,23.088,11.847z M16.665,11.31h2.67v0.538h-2.67V11.31z
							 M21.495,24.688h-6.992l-0.435-10.294h7.859L21.495,24.688z M22.585,13.392c-0.456,0-8.898,0-9.172,0v-0.54h9.172V13.392z"/>
					</g>
				</g>
				<g>
					<g>
						<path fill="#A3A3A3" d="M15.981,15.934c-0.277,0-0.503,0.224-0.503,0.502v6.212c0,0.276,0.226,0.5,0.503,0.5
							c0.275,0,0.501-0.224,0.501-0.5v-6.212C16.482,16.158,16.257,15.934,15.981,15.934z"/>
					</g>
				</g>
				<g>
					<g>
						<path fill="#A3A3A3" d="M17.999,15.934c-0.275,0-0.503,0.224-0.503,0.502v6.212c0,0.276,0.228,0.5,0.503,0.5
							s0.503-0.224,0.503-0.5v-6.212C18.502,16.158,18.274,15.934,17.999,15.934z"/>
					</g>
				</g>
			</g>
			<g>
				<g>
					<path fill="#A3A3A3" d="M20.017,15.934c-0.276,0-0.501,0.224-0.501,0.502v6.212c0,0.276,0.225,0.5,0.501,0.5
						c0.277,0,0.502-0.224,0.502-0.5v-6.212C20.519,16.158,20.294,15.934,20.017,15.934z"/>
				</g>
			</g>
		</g>
	</g>
</g>
<g id="Layer_2">
</g>
</svg>
