<?xml version="1.0" encoding="utf-8"?>
<!-- Generator: Adobe Illustrator 16.0.0, SVG Export Plug-In . SVG Version: 6.00 Build 0)  -->
<!DOCTYPE svg PUBLIC "-//W3C//DTD SVG 1.1//EN" "http://www.w3.org/Graphics/SVG/1.1/DTD/svg11.dtd">
<svg version="1.1" xmlns="http://www.w3.org/2000/svg" xmlns:xlink="http://www.w3.org/1999/xlink" x="0px" y="0px"
	 width="36.606px" height="36.604px" viewBox="0 0 36.606 36.604" enable-background="new 0 0 36.606 36.604" xml:space="preserve">
<g id="Layer_1">
	<g>
		<g>
			<g>
				<g>
					<g>
						<g>
							<path fill="#ffffff" d="M23.477,12.046h-2.795v-1.056c0-0.283-0.227-0.512-0.509-0.512h-3.737
								c-0.283,0-0.512,0.229-0.512,0.512v1.056h-2.793c-0.282,0-0.511,0.231-0.511,0.512v1.569c0,0.281,0.229,0.509,0.511,0.509
								h0.154l0.467,10.998c0.012,0.273,0.236,0.49,0.51,0.49h8.084c0.273,0,0.497-0.217,0.509-0.49l0.466-10.998h0.156
								c0.283,0,0.51-0.229,0.51-0.509v-1.569C23.986,12.277,23.76,12.046,23.477,12.046z M16.945,11.5h2.717v0.547h-2.717V11.5z
								 M21.857,25.104h-7.108l-0.442-10.467h7.991L21.857,25.104z M22.967,13.616c-0.465,0-9.049,0-9.326,0v-0.547h9.326V13.616z"
								/>
						</g>
					</g>
					<g>
						<g>
							<path fill="#ffffff" d="M16.251,16.202c-0.282,0-0.511,0.229-0.511,0.511v6.317c0,0.281,0.229,0.509,0.511,0.509
								s0.511-0.229,0.511-0.509v-6.317C16.762,16.43,16.533,16.202,16.251,16.202z"/>
						</g>
					</g>
					<g>
						<g>
							<path fill="#ffffff" d="M18.303,16.202c-0.281,0-0.511,0.229-0.511,0.511v6.317c0,0.281,0.229,0.509,0.511,0.509
								s0.511-0.229,0.511-0.509v-6.317C18.813,16.43,18.584,16.202,18.303,16.202z"/>
						</g>
					</g>
				</g>
				<g>
					<g>
						<path fill="#ffffff" d="M20.355,16.202c-0.281,0-0.511,0.229-0.511,0.511v6.317c0,0.281,0.229,0.509,0.511,0.509
							s0.51-0.229,0.51-0.509v-6.317C20.865,16.43,20.637,16.202,20.355,16.202z"/>
					</g>
				</g>
			</g>
		</g>
	</g>
</g>
<g id="Layer_2">
</g>
</svg>
