<?xml version="1.0" encoding="utf-8"?>
<!-- Generator: Adobe Illustrator 16.0.0, SVG Export Plug-In . SVG Version: 6.00 Build 0)  -->
<!DOCTYPE svg PUBLIC "-//W3C//DTD SVG 1.1//EN" "http://www.w3.org/Graphics/SVG/1.1/DTD/svg11.dtd">
<svg version="1.1" xmlns="http://www.w3.org/2000/svg" xmlns:xlink="http://www.w3.org/1999/xlink" x="0px" y="0px"
	 width="20.104px" height="18.765px" viewBox="0 0 20.104 18.765" enable-background="new 0 0 20.104 18.765" xml:space="preserve">
<g id="Layer_1">
	<g>
		<path fill="#51619E" d="M11.684,0.066c-0.233-0.111-0.508-0.082-0.709,0.081l-6.52,5.215H1.341C0.602,5.362,0,5.964,0,6.702v5.361
			c0,0.74,0.602,1.341,1.341,1.341h3.114l6.518,5.215c0.122,0.096,0.271,0.146,0.42,0.146c0.1,0,0.198-0.022,0.291-0.066
			c0.231-0.111,0.379-0.346,0.379-0.604V0.671C12.062,0.413,11.915,0.18,11.684,0.066z"/>
		<path fill="#51619E" d="M15.455,4.644c-0.264-0.26-0.688-0.256-0.947,0.005c-0.26,0.265-0.258,0.688,0.005,0.949
			c1.014,1,1.57,2.345,1.57,3.785c0,1.441-0.557,2.785-1.57,3.785c-0.263,0.259-0.265,0.684-0.005,0.947
			c0.131,0.133,0.304,0.198,0.476,0.198c0.17,0,0.34-0.063,0.472-0.193c1.271-1.251,1.969-2.935,1.969-4.737
			S16.727,5.896,15.455,4.644z"/>
		<path fill="#51619E" d="M17.347,2.755c-0.265-0.261-0.688-0.259-0.949,0.005c-0.26,0.262-0.258,0.688,0.004,0.946
			c1.524,1.512,2.363,3.527,2.363,5.677c0,2.15-0.839,4.164-2.363,5.675c-0.262,0.262-0.264,0.687-0.004,0.949
			c0.132,0.131,0.305,0.197,0.476,0.197c0.17,0,0.343-0.064,0.474-0.194c1.779-1.763,2.758-4.116,2.758-6.627
			C20.104,6.873,19.126,4.519,17.347,2.755z"/>
	</g>
</g>
<g id="Layer_2">
</g>
</svg>
