<svg width="28" height="14" viewBox="0 0 28 14" fill="none" xmlns="http://www.w3.org/2000/svg">
<path d="M19.587 0.346053C19.164 0.785053 19.164 1.48105 19.587 1.91805L23.317 5.65105H1.134C0.507003 5.65105 0 6.15805 0 6.78505C0 7.40905 0.507003 7.91705 1.134 7.91705H23.318L19.588 11.6461C19.153 12.0961 19.166 12.8141 19.616 13.2481C20.054 13.6731 20.751 13.6731 21.189 13.2481L26.852 7.58605C27.295 7.14405 27.296 6.42605 26.855 5.98405C26.853 5.98205 26.853 5.98205 26.852 5.98105L21.189 0.318053C20.739 -0.116947 20.022 -0.103947 19.587 0.346053Z" fill="white"/>
</svg>
