<?xml version="1.0" encoding="utf-8"?>
<!-- Generator: Adobe Illustrator 16.0.0, SVG Export Plug-In . SVG Version: 6.00 Build 0)  -->
<!DOCTYPE svg PUBLIC "-//W3C//DTD SVG 1.1//EN" "http://www.w3.org/Graphics/SVG/1.1/DTD/svg11.dtd">
<svg version="1.1" xmlns="http://www.w3.org/2000/svg" xmlns:xlink="http://www.w3.org/1999/xlink" x="0px" y="0px"
	 width="17.107px" height="13.795px" viewBox="0 0 17.107 13.795" enable-background="new 0 0 17.107 13.795" xml:space="preserve">
<g id="Layer_1">
	<g id="Layer_6_8_">
		<path fill="#51619E" d="M16.831,10.484h-0.275V8.391c0.002-0.854-0.377-1.662-1.031-2.209c-0.191-0.156-0.4-0.285-0.625-0.387
			l-0.053-0.277h0.605c0.457,0,0.828-0.371,0.828-0.828V4.139c0-0.459-0.371-0.828-0.828-0.828H14.4l-0.304-1.531
			C13.893,0.744,12.985-0.002,11.931,0H5.177C4.122-0.002,3.215,0.744,3.011,1.779L2.707,3.311H1.655
			c-0.457,0-0.828,0.369-0.828,0.828v0.551c0,0.457,0.371,0.828,0.828,0.828h0.618L2.222,5.795C1.993,5.898,1.778,6.031,1.583,6.193
			C0.929,6.738,0.55,7.549,0.552,8.4v2.084H0.276C0.124,10.484,0,10.607,0,10.76v1.104c0,0.152,0.124,0.275,0.276,0.275h1.379v0.828
			c0,0.457,0.371,0.828,0.828,0.828H4.69c0.457,0,0.828-0.371,0.828-0.828v-0.828h6.07v0.828c0,0.457,0.371,0.828,0.828,0.828h2.207
			c0.457,0,0.828-0.371,0.828-0.828v-0.828h1.379c0.152,0,0.276-0.123,0.276-0.275V10.76C17.107,10.607,16.983,10.484,16.831,10.484
			z M15.452,3.861c0.152,0,0.275,0.125,0.275,0.277v0.551c0,0.152-0.123,0.275-0.275,0.275h-0.727l-0.218-1.104H15.452z
			 M11.931,0.551c0.471,0,0.918,0.201,1.23,0.551H3.946c0.312-0.35,0.76-0.551,1.23-0.551H11.931z M1.655,4.965
			c-0.152,0-0.275-0.123-0.275-0.275V4.139c0-0.152,0.123-0.277,0.275-0.277H2.6L2.382,4.965H1.655z M3.551,1.887
			c0.019-0.078,0.04-0.156,0.066-0.232h9.873c0.026,0.076,0.048,0.154,0.065,0.232l0.729,3.697
			c-0.197-0.043-0.398-0.066-0.602-0.066H3.425c-0.203,0-0.404,0.023-0.602,0.066L3.551,1.887z M1.104,8.391
			C1.103,7.109,2.138,6.07,3.419,6.068c0.002,0,0.003,0,0.006,0h10.258c1.281,0,2.319,1.035,2.32,2.316c0,0.002,0,0.004,0,0.006
			v2.094h-4.966V8c0-0.457-0.371-0.828-0.827-0.828H6.897C6.441,7.172,6.07,7.543,6.07,8v2.484H1.104V8.391z M10.485,8.277H6.622V8
			c0-0.152,0.124-0.275,0.275-0.275h3.312c0.151,0,0.275,0.123,0.275,0.275V8.277z M6.622,8.828h3.863v0.553H6.622V8.828z
			 M6.622,9.934h3.863v0.551H6.622V9.934z M4.967,12.967c0,0.152-0.124,0.277-0.276,0.277H2.483c-0.152,0-0.275-0.125-0.275-0.277
			v-0.828h2.759V12.967z M14.899,12.967c0,0.152-0.123,0.277-0.275,0.277h-2.207c-0.152,0-0.276-0.125-0.276-0.277v-0.828h2.759
			V12.967z M16.556,11.588H0.552v-0.553h16.004V11.588z"/>
		<path fill="#51619E" d="M3.587,7.449c-1.082,0-1.932,0.551-1.932,1.24c0,0.691,0.85,1.244,1.932,1.244s1.932-0.553,1.932-1.244
			C5.519,8,4.669,7.449,3.587,7.449z M3.587,9.381c-0.814,0-1.379-0.365-1.379-0.691C2.208,8.365,2.772,8,3.587,8
			s1.38,0.365,1.38,0.689C4.967,9.016,4.415,9.381,3.587,9.381z"/>
		<path fill="#51619E" d="M13.521,9.934c1.082,0,1.932-0.553,1.932-1.244c0-0.689-0.85-1.24-1.932-1.24S11.589,8,11.589,8.689
			C11.589,9.381,12.438,9.934,13.521,9.934z M13.521,8c0.828,0,1.379,0.365,1.379,0.689c0,0.326-0.551,0.691-1.379,0.691
			s-1.38-0.365-1.38-0.691C12.141,8.365,12.707,8,13.521,8z"/>
		
			<rect x="5.175" y="3.584" transform="matrix(-0.7067 0.7075 -0.7075 -0.7067 13.5639 2.0977)" fill="#51619E" width="2.344" height="0.552"/>
		
			<rect x="7.383" y="3.585" transform="matrix(-0.7071 0.7071 -0.7071 -0.7071 17.3325 0.5433)" fill="#51619E" width="2.342" height="0.552"/>
		
			<rect x="9.591" y="3.586" transform="matrix(-0.7067 0.7075 -0.7075 -0.7067 21.1021 -1.0234)" fill="#51619E" width="2.344" height="0.552"/>
	</g>
</g>
<g id="Layer_2">
</g>
</svg>
