<?xml version="1.0" encoding="utf-8"?>
<!-- Generator: Adobe Illustrator 16.0.0, SVG Export Plug-In . SVG Version: 6.00 Build 0)  -->
<!DOCTYPE svg PUBLIC "-//W3C//DTD SVG 1.1//EN" "http://www.w3.org/Graphics/SVG/1.1/DTD/svg11.dtd">
<svg version="1.1" xmlns="http://www.w3.org/2000/svg" xmlns:xlink="http://www.w3.org/1999/xlink" x="0px" y="0px"
	 width="13.723px" height="13.722px" viewBox="0 0 13.723 13.722" enable-background="new 0 0 13.723 13.722" xml:space="preserve">
<g id="Layer_1">
	<g>
		<g>
			<g>
				<path fill="#51619E" d="M13.33,1.876c-0.202-0.203-0.528-0.203-0.731-0.001L6.395,8.063l-2.238-2.43
					C3.963,5.421,3.636,5.409,3.425,5.602c-0.21,0.193-0.223,0.52-0.029,0.729L5.998,9.16c0.096,0.104,0.229,0.163,0.37,0.167
					c0.003,0,0.008,0,0.01,0c0.137,0,0.27-0.054,0.367-0.151l6.584-6.568C13.531,2.405,13.532,2.078,13.33,1.876z"/>
			</g>
		</g>
		<g>
			<g>
				<path fill="#51619E" d="M13.206,6.344c-0.285,0-0.518,0.232-0.518,0.517c0,3.214-2.613,5.827-5.826,5.827
					s-5.827-2.613-5.827-5.827c0-3.214,2.614-5.827,5.827-5.827c0.285,0,0.517-0.231,0.517-0.517S7.147,0,6.862,0
					C3.078,0,0,3.078,0,6.861c0,3.783,3.078,6.861,6.862,6.861c3.782,0,6.86-3.079,6.86-6.861
					C13.723,6.576,13.491,6.344,13.206,6.344z"/>
			</g>
		</g>
	</g>
</g>
<g id="Layer_2">
</g>
</svg>
