<?xml version="1.0" encoding="utf-8"?>
<!-- Generator: Adobe Illustrator 16.0.0, SVG Export Plug-In . SVG Version: 6.00 Build 0)  -->
<!DOCTYPE svg PUBLIC "-//W3C//DTD SVG 1.1//EN" "http://www.w3.org/Graphics/SVG/1.1/DTD/svg11.dtd">
<svg version="1.1" xmlns="http://www.w3.org/2000/svg" xmlns:xlink="http://www.w3.org/1999/xlink" x="0px" y="0px"
	 width="15.508px" height="17.028px" viewBox="0 0 15.508 17.028" enable-background="new 0 0 15.508 17.028" xml:space="preserve">
<g id="Layer_1">
	<g>
		<path fill="#51619E" stroke="#51619E" stroke-width="0.25" stroke-miterlimit="10" d="M7.754,15.027
			c3.174,0,5.754-2.582,5.754-5.756s-2.58-5.753-5.754-5.753s-5.755,2.58-5.755,5.753S4.58,15.027,7.754,15.027z M3.469,8.965H2.624
			C2.695,7.779,3.169,6.704,3.91,5.866l0.597,0.593c0.06,0.061,0.138,0.092,0.218,0.092c0.078,0,0.157-0.032,0.217-0.092
			c0.121-0.119,0.121-0.314,0-0.436L4.346,5.43c0.838-0.742,1.915-1.215,3.1-1.287v0.846c0,0.168,0.139,0.309,0.309,0.309
			c0.171,0,0.309-0.141,0.309-0.309V4.143c1.185,0.072,2.262,0.545,3.098,1.287l-0.595,0.594c-0.12,0.121-0.12,0.316,0,0.436
			c0.062,0.061,0.14,0.092,0.218,0.092s0.158-0.032,0.219-0.092l0.596-0.593c0.74,0.838,1.214,1.914,1.286,3.099h-0.846
			c-0.17,0-0.308,0.139-0.308,0.307c0,0.172,0.138,0.307,0.308,0.307h0.846c-0.072,1.188-0.546,2.265-1.286,3.104l-0.596-0.597
			c-0.12-0.122-0.315-0.122-0.437,0c-0.12,0.121-0.12,0.316,0,0.438l0.595,0.594c-0.836,0.74-1.913,1.214-3.098,1.285v-0.842
			c0-0.172-0.138-0.308-0.309-0.308c-0.17,0-0.309,0.136-0.309,0.308v0.842c-1.185-0.071-2.262-0.545-3.1-1.285l0.596-0.594
			c0.121-0.121,0.121-0.317,0-0.438c-0.119-0.122-0.315-0.122-0.435,0L3.91,12.682c-0.741-0.838-1.215-1.916-1.286-3.104h0.845
			c0.17,0,0.308-0.135,0.308-0.307C3.776,9.104,3.639,8.965,3.469,8.965L3.469,8.965z"/>
		<path fill="#51619E" stroke="#51619E" stroke-width="0.25" stroke-miterlimit="10" d="M11.492,15.209
			c-1.118,0.703-2.41,1.077-3.738,1.077c-3.866,0-7.014-3.147-7.014-7.014c0-1.564,0.505-3.045,1.46-4.279
			C2.304,4.855,2.279,4.66,2.144,4.559C2.01,4.456,1.816,4.479,1.712,4.613C0.674,5.959,0.125,7.569,0.125,9.271
			c0,4.209,3.422,7.631,7.629,7.631c1.445,0,2.851-0.407,4.067-1.174c0.144-0.092,0.187-0.283,0.096-0.426
			C11.826,15.158,11.636,15.116,11.492,15.209L11.492,15.209z"/>
		<path fill="#51619E" stroke="#51619E" stroke-width="0.25" stroke-miterlimit="10" d="M9.613,1.872V0.704
			c0-0.318-0.259-0.579-0.579-0.579H6.473c-0.318,0-0.578,0.26-0.578,0.579v1.168C4.668,2.18,3.529,2.789,2.584,3.662
			C2.459,3.777,2.45,3.973,2.566,4.098C2.682,4.223,2.877,4.23,3.002,4.116C4.299,2.918,5.988,2.26,7.754,2.26
			c3.866,0,7.013,3.146,7.013,7.012c0,1.985-0.847,3.887-2.323,5.213c-0.126,0.115-0.137,0.308-0.023,0.437
			c0.062,0.068,0.145,0.104,0.229,0.104c0.074,0,0.147-0.029,0.207-0.08c1.605-1.445,2.526-3.516,2.526-5.674
			C15.383,5.707,12.925,2.707,9.613,1.872z M6.512,1.744V0.742h2.485v1.002c-0.404-0.064-0.819-0.1-1.243-0.1
			C7.335,1.645,6.919,1.678,6.512,1.744z"/>
		<path fill="#51619E" stroke="#51619E" stroke-width="0.25" stroke-miterlimit="10" d="M7.754,9.488
			c0.116,0,0.216-0.064,0.27-0.156l1.062-1.064c0.122-0.122,0.122-0.316,0-0.436c-0.118-0.122-0.314-0.122-0.435,0L8.062,8.418v-1.5
			c0-0.172-0.138-0.309-0.309-0.309c-0.17,0-0.309,0.137-0.309,0.309v2.263C7.445,9.352,7.584,9.488,7.754,9.488L7.754,9.488z"/>
	</g>
</g>
<g id="Layer_2">
</g>
</svg>
