<?xml version="1.0" encoding="utf-8"?>
<!-- Generator: Adobe Illustrator 16.0.0, SVG Export Plug-In . SVG Version: 6.00 Build 0)  -->
<!DOCTYPE svg PUBLIC "-//W3C//DTD SVG 1.1//EN" "http://www.w3.org/Graphics/SVG/1.1/DTD/svg11.dtd">
<svg version="1.1" xmlns="http://www.w3.org/2000/svg" xmlns:xlink="http://www.w3.org/1999/xlink" x="0px" y="0px"
	 width="11.912px" height="11.913px" viewBox="0 0 11.912 11.913" enable-background="new 0 0 11.912 11.913" xml:space="preserve">
<g id="Layer_1">
	<g>
		<g>
			<g>
				<path fill="#51619E" d="M10.912,11.913c-0.256,0-0.512-0.098-0.707-0.293L0.293,1.707c-0.391-0.39-0.391-1.023,0-1.414
					c0.391-0.391,1.023-0.391,1.414,0l9.912,9.912c0.391,0.391,0.391,1.023,0,1.415C11.424,11.815,11.168,11.913,10.912,11.913z"/>
			</g>
			<g>
				<path fill="#51619E" d="M1,11.913c-0.256,0-0.512-0.098-0.707-0.293c-0.391-0.391-0.391-1.023,0-1.415l9.912-9.912
					c0.391-0.391,1.023-0.391,1.414,0c0.391,0.391,0.391,1.024,0,1.414L1.707,11.62C1.512,11.815,1.256,11.913,1,11.913z"/>
			</g>
		</g>
	</g>
</g>
<g id="Layer_2">
</g>
</svg>
