<?xml version="1.0" encoding="utf-8"?>
<!-- Generator: Adobe Illustrator 16.0.0, SVG Export Plug-In . SVG Version: 6.00 Build 0)  -->
<!DOCTYPE svg PUBLIC "-//W3C//DTD SVG 1.1//EN" "http://www.w3.org/Graphics/SVG/1.1/DTD/svg11.dtd">
<svg version="1.1" xmlns="http://www.w3.org/2000/svg" xmlns:xlink="http://www.w3.org/1999/xlink" x="0px" y="0px"
	 width="21.104px" height="13.377px" viewBox="0 0 21.104 13.377" enable-background="new 0 0 21.104 13.377" xml:space="preserve">
<g id="Layer_1">
	<path fill="#404041" d="M16.88,4.929c-0.17,0-0.338,0.011-0.505,0.03c-0.455-1.479-1.82-2.491-3.368-2.494
		c-0.385,0-0.769,0.063-1.132,0.188c-0.902-1.949-3.038-3.009-5.136-2.546S3.149,2.43,3.15,4.577
		c0.001,0.371,0.047,0.741,0.139,1.101C1.29,5.983-0.138,7.774,0.011,9.79c0.147,2.016,1.823,3.579,3.844,3.587H16.88
		c2.332,0,4.224-1.891,4.224-4.224C21.104,6.82,19.212,4.929,16.88,4.929z M16.88,12.673H3.854C2.12,12.681,0.702,11.29,0.676,9.554
		C0.649,7.819,2.024,6.386,3.761,6.342c0.112-0.003,0.217-0.06,0.28-0.152C4.104,6.096,4.12,5.979,4.082,5.873
		C3.384,3.874,4.423,1.684,6.414,0.961s4.192,0.29,4.939,2.272c0.034,0.092,0.105,0.165,0.195,0.202
		c0.091,0.038,0.192,0.036,0.282-0.005c0.368-0.171,0.77-0.26,1.176-0.261c1.34,0.002,2.493,0.946,2.76,2.258
		c0.038,0.191,0.225,0.314,0.416,0.275c0.229-0.046,0.462-0.069,0.697-0.069c1.943,0,3.52,1.576,3.52,3.52
		S18.823,12.673,16.88,12.673z"/>
</g>
<g id="Layer_2">
</g>
</svg>
