<svg width="26" height="26" viewBox="0 0 26 26" fill="none" xmlns="http://www.w3.org/2000/svg">
<path d="M13.124 25.7929C20.2115 25.7929 25.957 20.0474 25.957 12.9599C25.957 5.87246 20.2115 0.126953 13.124 0.126953C6.03655 0.126953 0.291016 5.87246 0.291016 12.9599C0.291016 20.0474 6.03655 25.7929 13.124 25.7929Z" fill="white"/>
<path d="M16.75 8.57288H14.791V7.83289C14.791 7.63389 14.632 7.47388 14.434 7.47388H11.813C11.615 7.47388 11.455 7.63389 11.455 7.83289V8.57288H9.49704C9.29904 8.57288 9.13904 8.73488 9.13904 8.93188V10.0319C9.13904 10.2289 9.29904 10.3889 9.49704 10.3889H9.60504L9.93304 18.0999C9.94004 18.2909 10.098 18.4439 10.29 18.4439H15.958C16.149 18.4439 16.306 18.2919 16.315 18.0999L16.642 10.3889H16.751C16.949 10.3889 17.108 10.2289 17.108 10.0319V8.93188C17.108 8.73488 16.949 8.57288 16.75 8.57288ZM12.171 8.18988H14.075V8.57288H12.171V8.18988ZM15.615 17.7279H10.632L10.322 10.3899H15.925L15.615 17.7279ZM16.393 9.67487C16.068 9.67487 10.049 9.67487 9.85403 9.67487V9.28989H16.393V9.67487Z" fill="#A3A3A2"/>
<path d="M11.684 11.4868C11.487 11.4868 11.327 11.6468 11.327 11.8438V16.2738C11.327 16.4708 11.487 16.6308 11.684 16.6308C11.882 16.6308 12.042 16.4708 12.042 16.2738V11.8438C12.042 11.6468 11.882 11.4868 11.684 11.4868Z" fill="#A3A3A2"/>
<path d="M13.123 11.4868C12.926 11.4868 12.765 11.6468 12.765 11.8438V16.2738C12.765 16.4708 12.926 16.6308 13.123 16.6308C13.321 16.6308 13.481 16.4708 13.481 16.2738V11.8438C13.481 11.6468 13.32 11.4868 13.123 11.4868Z" fill="#A3A3A2"/>
<path d="M14.5621 11.4868C14.3651 11.4868 14.2051 11.6468 14.2051 11.8438V16.2738C14.2051 16.4708 14.3661 16.6308 14.5621 16.6308C14.7601 16.6308 14.9201 16.4708 14.9201 16.2738V11.8438C14.9191 11.6468 14.7591 11.4868 14.5621 11.4868Z" fill="#A3A3A2"/>
</svg>
