<?xml version="1.0" encoding="utf-8"?>
<!-- Generator: Adobe Illustrator 16.0.0, SVG Export Plug-In . SVG Version: 6.00 Build 0)  -->
<!DOCTYPE svg PUBLIC "-//W3C//DTD SVG 1.1//EN" "http://www.w3.org/Graphics/SVG/1.1/DTD/svg11.dtd">
<svg version="1.1" xmlns="http://www.w3.org/2000/svg" xmlns:xlink="http://www.w3.org/1999/xlink" x="0px" y="0px"
	 width="31.248px" height="31.248px" viewBox="0 0 31.248 31.248" enable-background="new 0 0 31.248 31.248" xml:space="preserve">
<g id="Layer_1">
	<g opacity="0.9">
		<g>
			<path fill="#FFFFFF" d="M15.623,0C6.995,0,0,6.995,0,15.625c0,8.628,6.995,15.624,15.623,15.624
				c8.63,0,15.625-6.995,15.625-15.624C31.239,6.999,24.248,0.009,15.623,0z M22.203,16.122c-0.107,0.217-0.284,0.393-0.5,0.501
				v0.005l-8.928,4.464c-0.553,0.275-1.223,0.051-1.498-0.5c-0.078-0.157-0.118-0.33-0.117-0.505V11.16
				c-0.001-0.617,0.498-1.116,1.115-1.117c0.174,0,0.345,0.04,0.5,0.118l8.928,4.464C22.254,14.9,22.479,15.57,22.203,16.122z"/>
		</g>
	</g>
</g>
<g id="Layer_2">
</g>
</svg>
