<?xml version="1.0" encoding="utf-8"?>
<!-- Generator: Adobe Illustrator 16.0.0, SVG Export Plug-In . SVG Version: 6.00 Build 0)  -->
<!DOCTYPE svg PUBLIC "-//W3C//DTD SVG 1.1//EN" "http://www.w3.org/Graphics/SVG/1.1/DTD/svg11.dtd">
<svg version="1.1" xmlns="http://www.w3.org/2000/svg" xmlns:xlink="http://www.w3.org/1999/xlink" x="0px" y="0px"
	 width="24.217px" height="9.008px" viewBox="0 0 24.217 9.008" enable-background="new 0 0 24.217 9.008" xml:space="preserve">
<g id="Layer_1">
	<g>
		<path fill="#282826" d="M23.808,0.773h-1.658l-0.246-0.627C21.867,0.059,21.781,0,21.685,0h-4.809
			c-0.078,0-0.152,0.039-0.195,0.105l-0.441,0.668h-3.542c-2.698,0-10.347,3.152-11.291,4.973c-0.208,0.488-0.09,0.832,0.046,1.033
			c0.404,0.6,1.443,0.707,2.799,0.707c0.217,0,0.44-0.004,0.672-0.008C5.13,7.475,5.327,7.473,5.506,7.473h18.302
			c0.226,0,0.409-0.184,0.409-0.41V1.184C24.217,0.957,24.033,0.773,23.808,0.773z M23.397,6.652H5.506
			c-0.183,0-0.385,0.004-0.597,0.008C4.093,6.674,2.389,6.703,2.13,6.32C2.091,6.26,2.125,6.148,2.146,6.094
			c0.723-1.389,8.02-4.502,10.552-4.502h10.7V6.652z"/>
		<g>
			<path fill="#282826" d="M15.515,4.477H14.75c-0.325,0-0.588-0.262-0.588-0.586V3.125c0-0.324,0.263-0.588,0.588-0.588h0.765
				c0.324,0,0.588,0.264,0.588,0.588v0.766C16.103,4.215,15.839,4.477,15.515,4.477z M14.75,3.006c-0.065,0-0.12,0.053-0.12,0.119
				v0.766c0,0.064,0.055,0.119,0.12,0.119h0.765c0.066,0,0.119-0.055,0.119-0.119V3.125c0-0.066-0.053-0.119-0.119-0.119H14.75z"/>
		</g>
		<g>
			<path fill="#282826" d="M18.311,4.477h-0.765c-0.324,0-0.588-0.262-0.588-0.586V3.125c0-0.324,0.264-0.588,0.588-0.588h0.765
				c0.324,0,0.587,0.264,0.587,0.588v0.766C18.897,4.215,18.635,4.477,18.311,4.477z M17.546,3.006
				c-0.066,0-0.119,0.053-0.119,0.119v0.766c0,0.064,0.053,0.119,0.119,0.119h0.765c0.065,0,0.12-0.055,0.12-0.119V3.125
				c0-0.066-0.055-0.119-0.12-0.119H17.546z"/>
		</g>
		<g>
			<path fill="#282826" d="M21.106,4.477h-0.766c-0.323,0-0.587-0.262-0.587-0.586V3.125c0-0.324,0.264-0.588,0.587-0.588h0.766
				c0.324,0,0.588,0.264,0.588,0.588v0.766C21.694,4.215,21.431,4.477,21.106,4.477z M20.341,3.006
				c-0.064,0-0.119,0.053-0.119,0.119v0.766c0,0.064,0.055,0.119,0.119,0.119h0.766c0.066,0,0.12-0.055,0.12-0.119V3.125
				c0-0.066-0.054-0.119-0.12-0.119H20.341z"/>
		</g>
		<g>
			<path fill="#282826" d="M23.808,6.139H1.782c-0.129,0-0.233-0.105-0.233-0.234s0.104-0.232,0.233-0.232h22.025
				c0.129,0,0.234,0.104,0.234,0.232S23.937,6.139,23.808,6.139z"/>
		</g>
		<g>
			<path fill="#282826" d="M9.247,4.477H4.194c-0.13,0-0.234-0.104-0.234-0.232c0-0.131,0.104-0.234,0.234-0.234h5.053
				c0.572,0,1.656-0.549,1.975-1.004H7.261c-0.13,0-0.234-0.105-0.234-0.234s0.104-0.234,0.234-0.234h4.283
				c0.13,0,0.234,0.105,0.234,0.234C11.778,3.652,10.038,4.477,9.247,4.477z"/>
		</g>
		<g>
			<path fill="#282826" d="M23.808,9.008H0.409C0.183,9.008,0,8.824,0,8.598c0-0.225,0.183-0.41,0.409-0.41h23.398
				c0.226,0,0.409,0.186,0.409,0.41C24.217,8.824,24.033,9.008,23.808,9.008z"/>
		</g>
	</g>
</g>
<g id="Layer_2">
</g>
</svg>
