<?xml version="1.0" encoding="utf-8"?>
<!-- Generator: Adobe Illustrator 16.0.0, SVG Export Plug-In . SVG Version: 6.00 Build 0)  -->
<!DOCTYPE svg PUBLIC "-//W3C//DTD SVG 1.1//EN" "http://www.w3.org/Graphics/SVG/1.1/DTD/svg11.dtd">
<svg version="1.1" xmlns="http://www.w3.org/2000/svg" xmlns:xlink="http://www.w3.org/1999/xlink" x="0px" y="0px"
	 width="18.026px" height="18.026px" viewBox="0 0 18.026 18.026" enable-background="new 0 0 18.026 18.026" xml:space="preserve">
<g id="Layer_1">
	<g>
		<g>
			<g>
				<path fill="#51619E" d="M17.916,16.856l-5.236-5.239c0.993-1.224,1.591-2.783,1.591-4.48C14.271,3.201,11.069,0,7.136,0
					C3.2,0,0,3.201,0,7.137c0,3.934,3.2,7.135,7.136,7.135c1.697,0,3.256-0.598,4.482-1.592l5.236,5.236
					c0.146,0.146,0.384,0.146,0.53,0l0.531-0.529C18.063,17.239,18.063,17,17.916,16.856z M7.136,12.77
					c-3.107,0-5.634-2.527-5.634-5.633c0-3.108,2.526-5.635,5.634-5.635c3.105,0,5.633,2.527,5.633,5.635
					C12.769,10.243,10.241,12.77,7.136,12.77z"/>
			</g>
		</g>
	</g>
</g>
<g id="Layer_2">
</g>
</svg>
